<svg width="28" height="28" viewBox="0 0 28 28" fill="none" xmlns="http://www.w3.org/2000/svg">
<g id="2D illustrations">
<path id="Vector" d="M27.3596 7.95321C26.572 4.29495 23.7051 1.42797 20.0468 0.640379C18.0962 0.22082 16.0757 0 14 0C11.9243 0 9.90378 0.22082 7.9532 0.640379C4.29495 1.42797 1.42797 4.29495 0.640375 7.95321C0.220817 9.90379 0 11.9243 0 14C0 16.0757 0.220817 18.0962 0.640375 20.0468C1.42797 23.705 4.29495 26.572 7.9532 27.3596C9.90378 27.7792 11.9243 28 14 28C16.0757 28 18.0962 27.7792 20.0468 27.3596C23.7051 26.572 26.572 23.705 27.3596 20.0468C27.7792 18.0962 28 16.0757 28 14C28 11.9243 27.7792 9.90379 27.3596 7.95321Z" fill="url(#paint0_linear_2284_9422)"/>
<path id="Vector_2" d="M20.3225 12.7298L17.0201 9.40625L14.0281 6.37903L11.1006 9.34895L7.8009 12.6492L5.81453 14.621L7.16438 16.0282L9.15021 14.0564L12.4504 10.7562L14.0281 9.14516L15.6936 10.8105L17.2057 12.3507L18.8548 14L20.8629 15.9734L22.2419 14.621L20.3225 12.7298Z" fill="white"/>
<path id="Vector_3" d="M8.55238 15.8912V20.8025H14.7056V17.0202H16.7379V20.8025H19.5322V15.9476L14.0282 10.4436L8.55238 15.8912Z" fill="white"/>
</g>
<defs>
<linearGradient id="paint0_linear_2284_9422" x1="3.22029" y1="24.7797" x2="24.7797" y2="3.22029" gradientUnits="userSpaceOnUse">
<stop stop-color="#14E271"/>
<stop offset="1" stop-color="#1AFF76"/>
</linearGradient>
</defs>
</svg>
