<svg width="28" height="28" viewBox="0 0 28 28" fill="none" xmlns="http://www.w3.org/2000/svg">
<g id="2D illustrations">
<path id="Vector" d="M27.3596 7.95321C26.572 4.29495 23.705 1.42797 20.0468 0.640378C18.0962 0.22082 16.0757 0 14 0C11.9243 0 9.90379 0.22082 7.95321 0.640378C4.29496 1.42797 1.42798 4.29495 0.640386 7.95321C0.220828 9.90378 0 11.9243 0 14C0 16.0757 0.220828 18.0962 0.640386 20.0468C1.42798 23.705 4.29496 26.572 7.95321 27.3596C9.90379 27.7792 11.9243 28 14 28C16.0757 28 18.0962 27.7792 20.0468 27.3596C23.705 26.572 26.572 23.705 27.3596 20.0468C27.7792 18.0962 28 16.0757 28 14C28 11.9243 27.7792 9.90378 27.3596 7.95321Z" fill="url(#paint0_linear_2284_9413)"/>
<g id="Group">
<path id="Vector_2" d="M7.94836 17.7499C7.64289 16.6127 8.13238 15.3209 9.23648 14.2499L9.89893 15.5307L12.3574 11.6958L7.80483 11.4823L8.51145 12.8477C6.77065 14.3493 5.99042 16.3367 6.47622 18.1437C7.09084 20.4292 9.57507 21.8535 12.5083 21.8535C13.3106 21.8535 14.1497 21.7468 14.9925 21.5223L14.5987 20.0501C11.4925 20.8819 8.51145 19.8477 7.94836 17.7499Z" fill="white"/>
<path id="Vector_3" d="M21.5251 9.85576C20.7449 6.94462 16.9247 5.42832 13.0088 6.47722L13.4026 7.94935C16.5051 7.11759 19.4899 8.15177 20.053 10.2496C20.3584 11.3868 19.8689 12.6786 18.7648 13.7496L18.1024 12.4688L15.6439 16.3037L20.1965 16.5172L19.4899 15.1518C21.2307 13.6502 22.0109 11.6628 21.5251 9.85576Z" fill="white"/>
</g>
</g>
<defs>
<linearGradient id="paint0_linear_2284_9413" x1="3.22029" y1="24.7797" x2="24.7797" y2="3.22029" gradientUnits="userSpaceOnUse">
<stop stop-color="#2379E2"/>
<stop offset="1" stop-color="#1F75FF"/>
</linearGradient>
</defs>
</svg>
