<svg width="28" height="28" viewBox="0 0 28 28" fill="none" xmlns="http://www.w3.org/2000/svg">
<g id="2D illustrations">
<path id="Vector" d="M27.3596 7.95321C26.572 4.29495 23.705 1.42797 20.0468 0.640379C18.0962 0.22082 16.0757 0 14 0C11.9243 0 9.90379 0.22082 7.95321 0.640379C4.29495 1.42797 1.42797 4.29495 0.640375 7.95321C0.220817 9.90379 0 11.9243 0 14C0 16.0757 0.220817 18.0962 0.640375 20.0468C1.42797 23.705 4.29495 26.572 7.95321 27.3596C9.90379 27.7792 11.9243 28 14 28C16.0757 28 18.0962 27.7792 20.0468 27.3596C23.705 26.572 26.572 23.705 27.3596 20.0468C27.7792 18.0962 28 16.0757 28 14C28 11.9243 27.7792 9.90379 27.3596 7.95321Z" fill="url(#paint0_linear_2284_9425)"/>
<path id="Vector_2" d="M13.8307 10.1513L12.3519 10.5181L14.1717 17.8552L15.6505 17.4884L13.8307 10.1513Z" fill="white"/>
<path id="Vector_3" d="M13.9998 5.94751C9.55767 5.94751 5.94727 9.5616 5.94727 14.0001C5.94727 18.4386 9.56135 22.0527 13.9998 22.0527C18.4383 22.0527 22.0524 18.4386 22.0524 14.0001C22.0524 9.5616 18.4383 5.94751 13.9998 5.94751ZM13.9998 20.529C10.4005 20.529 7.47092 17.5995 7.47092 14.0001C7.47092 10.4007 10.4005 7.47117 13.9998 7.47117C17.5992 7.47117 20.5288 10.4007 20.5288 14.0001C20.5288 17.5995 17.5992 20.529 13.9998 20.529Z" fill="white"/>
</g>
<defs>
<linearGradient id="paint0_linear_2284_9425" x1="3.22029" y1="24.7797" x2="24.7797" y2="3.22029" gradientUnits="userSpaceOnUse">
<stop stop-color="#F2BA2F"/>
<stop offset="0.0001" stop-color="#F2BA2F"/>
<stop offset="1" stop-color="#F7B64D"/>
</linearGradient>
</defs>
</svg>
