<svg width="28" height="28" viewBox="0 0 28 28" fill="none" xmlns="http://www.w3.org/2000/svg">
<g id="2D illustrations">
<path id="Vector" d="M27.3596 7.95321C26.572 4.29495 23.7051 1.42797 20.0468 0.640379C18.0962 0.22082 16.0757 0 14 0C11.9243 0 9.90378 0.22082 7.9532 0.640379C4.29495 1.42797 1.42797 4.29495 0.640375 7.95321C0.220817 9.90379 0 11.9243 0 14C0 16.0757 0.220817 18.0962 0.640375 20.0468C1.42797 23.705 4.29495 26.572 7.9532 27.3596C9.90378 27.7792 11.9243 28 14 28C16.0757 28 18.0962 27.7792 20.0468 27.3596C23.7051 26.572 26.572 23.705 27.3596 20.0468C27.7792 18.0962 28 16.0757 28 14C28 11.9243 27.7792 9.90379 27.3596 7.95321Z" fill="url(#paint0_linear_2284_9416)"/>
<path id="Vector_2" d="M15.2145 22.8549C15.1041 22.8549 14.9937 22.8512 14.8833 22.8402C11.6593 22.5642 8.63409 19.48 7.52263 15.336L7.28708 14.4564L9.19349 14.2944C8.51263 10.6583 9.61673 7.1325 11.1735 5.3917L11.5011 5.02734L11.9685 5.17456C14.2319 5.88118 17.0989 8.39853 18.3465 11.8212L19.8333 11.0705L20.0763 11.9758C21.1877 16.1199 20.1094 20.3044 17.4559 22.1556C16.8008 22.612 16.0168 22.8586 15.2219 22.8586L15.2145 22.8549ZM9.2671 15.8181C10.3602 18.9022 12.6383 21.1215 15.0121 21.3239C15.5642 21.3717 16.1236 21.2208 16.5762 20.9043C18.5268 19.5426 19.3917 16.5026 18.8065 13.2934L17.3933 14.0074L17.1504 13.102C16.3517 10.1209 13.9963 7.67351 11.9905 6.80863C10.7908 8.49422 10.0289 11.674 10.8644 14.7876L11.0999 15.6672L9.2671 15.8218V15.8181Z" fill="white"/>
</g>
<defs>
<linearGradient id="paint0_linear_2284_9416" x1="3.22029" y1="24.7797" x2="24.7797" y2="3.2203" gradientUnits="userSpaceOnUse">
<stop stop-color="#14E271"/>
<stop offset="1" stop-color="#1AFF76"/>
</linearGradient>
</defs>
</svg>
