<svg width="28" height="28" viewBox="0 0 28 28" fill="none" xmlns="http://www.w3.org/2000/svg">
<g id="2D illustrations">
<path id="Vector" d="M27.3596 7.95321C26.572 4.29495 23.7051 1.42797 20.0468 0.640379C18.0962 0.22082 16.0757 0 14 0C11.9243 0 9.90378 0.22082 7.9532 0.640379C4.29495 1.42797 1.42797 4.29495 0.640375 7.95321C0.220817 9.90379 0 11.9243 0 14C0 16.0757 0.220817 18.0962 0.640375 20.0468C1.42797 23.7051 4.29495 26.572 7.9532 27.3596C9.90378 27.7792 11.9243 28 14 28C16.0757 28 18.0962 27.7792 20.0468 27.3596C23.7051 26.572 26.572 23.7051 27.3596 20.0468C27.7792 18.0962 28 16.0757 28 14C28 11.9243 27.7792 9.90379 27.3596 7.95321Z" fill="url(#paint0_linear_2284_9419)"/>
<g id="Group">
<path id="Vector_2" d="M12.6336 10.9638L9.41332 7.74353L8.23193 12.1452L9.69671 11.7514L11.743 19.3881L13.2151 18.9943L11.1688 11.3576L12.6336 10.9638Z" fill="white"/>
<path id="Vector_3" d="M20.0531 21.0994L18.0068 13.4591L19.4716 13.0689L16.2476 9.84497L15.0699 14.2467L16.5347 13.8529L18.581 21.4932L20.0531 21.0994Z" fill="white"/>
</g>
</g>
<defs>
<linearGradient id="paint0_linear_2284_9419" x1="3.22029" y1="24.7797" x2="24.7797" y2="3.2203" gradientUnits="userSpaceOnUse">
<stop stop-color="#2379E2"/>
<stop offset="1" stop-color="#1F75FF"/>
</linearGradient>
</defs>
</svg>
