<svg xmlns="http://www.w3.org/2000/svg" width="20" height="20" viewBox="0 0 20 20" fill="none">
  <path fill-rule="evenodd" clip-rule="evenodd" d="M6.04167 5.20833V3C6.04167 2.73155 6.13569 2.48506 6.29261 2.29167C6.49887 2.03746 6.8138 1.875 7.16667 1.875H12.8333C13.1862 1.875 13.5011 2.03746 13.7074 2.29167C13.8643 2.48506 13.9583 2.73155 13.9583 3V5.20833H17.5C17.8452 5.20833 18.125 5.48816 18.125 5.83333C18.125 6.17851 17.8452 6.45833 17.5 6.45833H2.5C2.15482 6.45833 1.875 6.17851 1.875 5.83333C1.875 5.48816 2.15482 5.20833 2.5 5.20833H6.04167ZM16.4583 9.16667C16.4583 8.82149 16.1785 8.54167 15.8333 8.54167C15.6742 8.54167 15.5289 8.60116 15.4186 8.69913C15.2896 8.81362 15.2083 8.98065 15.2083 9.16667V16.875H4.79167V9.16667C4.79167 8.98065 4.7104 8.81362 4.58144 8.69913C4.4711 8.60116 4.32583 8.54167 4.16667 8.54167C3.82149 8.54167 3.54167 8.82149 3.54167 9.16667V17C3.54167 17.6214 4.04537 18.125 4.66667 18.125H15.3333C15.9547 18.125 16.4583 17.6213 16.4583 17V9.16667ZM7.70833 14.1667C7.70833 14.5118 7.98816 14.7917 8.33333 14.7917C8.67851 14.7917 8.95833 14.5118 8.95833 14.1667V9.16667C8.95833 8.88233 8.76846 8.64233 8.50858 8.56657C8.45298 8.55036 8.39417 8.54167 8.33333 8.54167C8.03839 8.54167 7.79117 8.74597 7.72546 9.02077C7.71426 9.06758 7.70833 9.11643 7.70833 9.16667V14.1667ZM11.4914 8.56657C11.2315 8.64233 11.0417 8.88233 11.0417 9.16667V14.1667C11.0417 14.5118 11.3215 14.7917 11.6667 14.7917C12.0118 14.7917 12.2917 14.5118 12.2917 14.1667V9.16667C12.2917 9.11643 12.2857 9.06758 12.2745 9.02077C12.2088 8.74597 11.9616 8.54167 11.6667 8.54167C11.6058 8.54167 11.547 8.55036 11.4914 8.56657ZM12.7083 5.20833V3.125H7.29167V5.20833H12.7083Z" fill="#E5132C"/>
</svg>
