<svg xmlns="http://www.w3.org/2000/svg" width="12" height="12" viewBox="0 0 12 12" fill="none">
  <path fill-rule="evenodd" clip-rule="evenodd" d="M5.375 3C5.375 2.6548 5.65486 2.375 6 2.375C6.34514 2.375 6.625 2.6548 6.625 3C6.625 3.3452 6.34514 3.625 6 3.625C5.65486 3.625 5.375 3.3452 5.375 3ZM5.375 6C5.375 5.65484 5.65484 5.375 6 5.375C6.34516 5.375 6.625 5.65484 6.625 6C6.625 6.34516 6.34516 6.625 6 6.625C5.65484 6.625 5.375 6.34516 5.375 6ZM5.375 9C5.375 8.65484 5.65484 8.375 6 8.375C6.34516 8.375 6.625 8.65484 6.625 9C6.625 9.34516 6.34516 9.625 6 9.625C5.65484 9.625 5.375 9.34516 5.375 9Z" fill="#001D6C"/>
</svg>
