<svg xmlns="http://www.w3.org/2000/svg" width="16" height="16" viewBox="0 0 16 16" fill="none">
  <path fill-rule="evenodd" clip-rule="evenodd" d="M10.5661 1.5C10.6987 1.5 10.8259 1.55268 10.9197 1.64645L14.2195 4.94628C14.4147 5.14154 14.4147 5.45813 14.2195 5.65339L12.3343 7.5385C12.3342 7.53866 12.334 7.53882 12.3339 7.53898C12.3337 7.53914 12.3335 7.5393 12.3334 7.53946L5.92951 13.9433C5.92949 13.9433 5.92948 13.9434 5.92946 13.9434C5.7106 14.1623 5.41383 14.2851 5.1045 14.2851H2.08081C1.80467 14.2851 1.58081 14.0612 1.58081 13.7851V10.7614C1.58081 10.4521 1.7037 10.1553 1.92252 9.93647M1.92255 9.93645L8.32661 3.5324C8.32672 3.53229 8.32684 3.53218 8.32695 3.53207C8.32706 3.53196 8.32717 3.53184 8.32729 3.53173L10.2125 1.64645C10.3063 1.55268 10.4335 1.5 10.5661 1.5M10.5661 2.70711L9.38761 3.88562L11.9803 6.47832L13.1588 5.29983L10.5661 2.70711ZM11.2732 7.18543L8.6805 4.59273L2.62962 10.6436L2.6296 10.6436C2.59839 10.6748 2.58081 10.7172 2.58081 10.7614V13.2851H5.1045C5.14876 13.2851 5.1911 13.2675 5.22229 13.2363L5.22235 13.2363L11.2732 7.18543Z" fill="#0F62FE"/>
</svg>
