<svg xmlns="http://www.w3.org/2000/svg" width="20" height="20" viewBox="0 0 20 20" fill="none">
  <path fill-rule="evenodd" clip-rule="evenodd" d="M2.05806 2.05806C2.30214 1.81398 2.69787 1.81398 2.94194 2.05806L17.9419 17.0581C18.186 17.3021 18.186 17.6979 17.9419 17.9419C17.6979 18.186 17.3021 18.186 17.0581 17.9419L13.6966 14.5805C12.5718 15.2161 11.3187 15.625 10 15.625C8.28056 15.625 6.67285 14.9304 5.31071 13.9402C3.94734 12.9491 2.79483 11.6376 1.97153 10.3337C1.82861 10.1073 1.84571 9.81509 2.01406 9.60695C2.95346 8.44554 4.0163 7.16204 5.27764 6.16152L2.05806 2.94194C1.81398 2.69786 1.81398 2.30214 2.05806 2.05806ZM6.16807 7.05195C5.10301 7.87093 4.16773 8.94489 3.27363 10.039C4.00015 11.1003 4.95464 12.136 6.0457 12.9291C7.26547 13.8158 8.62086 14.375 10 14.375C10.9474 14.375 11.8836 14.1114 12.7738 13.6577L11.1173 12.0012C10.7867 12.1861 10.4053 12.2917 10 12.2917C8.7343 12.2917 7.70834 11.2656 7.70834 10C7.70834 9.59476 7.81392 9.21336 7.99882 8.8827L6.16807 7.05195ZM8.96863 9.85252C8.96184 9.90066 8.95834 9.94989 8.95834 10C8.95834 10.5753 9.4247 11.0417 10 11.0417C10.0501 11.0417 10.0993 11.0382 10.1475 11.0314L8.96863 9.85252ZM9.375 5C9.375 4.65482 9.65482 4.375 10 4.375C13.6835 4.375 16.1071 7.28406 17.9859 9.60696C18.1543 9.81511 18.1714 10.1074 18.0284 10.3337C17.7498 10.7749 17.4344 11.2157 17.087 11.6438C16.8695 11.9119 16.4759 11.9528 16.2078 11.7353C15.9398 11.5178 15.8989 11.1242 16.1164 10.8562C16.3343 10.5876 16.5381 10.3139 16.7263 10.0391C14.8575 7.75457 12.8504 5.625 10 5.625C9.65482 5.625 9.375 5.34518 9.375 5Z" fill="#8993A3"/>
</svg>
