<svg xmlns="http://www.w3.org/2000/svg" width="20" height="20" viewBox="0 0 20 20" fill="none">
  <path fill-rule="evenodd" clip-rule="evenodd" d="M3.27371 10.0391C4.00021 11.1003 4.95468 12.136 6.0457 12.9291C7.26547 13.8158 8.62086 14.375 10 14.375C11.3791 14.375 12.7345 13.8158 13.9543 12.9291C15.0453 12.136 15.9998 11.1003 16.7263 10.0391C14.8575 7.75459 12.8504 5.625 10 5.625C7.14964 5.625 5.14254 7.75462 3.27371 10.0391ZM2.01406 9.60695C3.8929 7.28411 6.31656 4.375 10 4.375C13.6835 4.375 16.1071 7.28406 17.9859 9.60696C18.1543 9.8151 18.1714 10.1073 18.0285 10.3337C17.2052 11.6376 16.0526 12.9491 14.6893 13.9402C13.3271 14.9304 11.7194 15.625 10 15.625C8.28056 15.625 6.67285 14.9304 5.31071 13.9402C3.94734 12.9491 2.79483 11.6376 1.97153 10.3337C1.82861 10.1073 1.84571 9.81509 2.01406 9.60695ZM7.70834 10C7.70834 8.73432 8.73432 7.70833 10 7.70833C11.2657 7.70833 12.2917 8.73432 12.2917 10C12.2917 11.2657 11.2657 12.2917 10 12.2917C8.73432 12.2917 7.70834 11.2657 7.70834 10ZM10 8.95833C9.42468 8.95833 8.95834 9.42468 8.95834 10C8.95834 10.5753 9.42468 11.0417 10 11.0417C10.5753 11.0417 11.0417 10.5753 11.0417 10C11.0417 9.42468 10.5753 8.95833 10 8.95833Z" fill="#8993A3"/>
</svg>
