<svg xmlns="http://www.w3.org/2000/svg" viewBox="0 0 16 16" fill="none">
  <path fill-rule="evenodd" clip-rule="evenodd" d="M1.5 2.66667C1.5 2.02233 2.02233 1.5 2.66667 1.5H13.3333C13.9777 1.5 14.5 2.02233 14.5 2.66667V4.39052C14.5 4.69994 14.3771 4.99669 14.1583 5.21548L9.88215 9.49162C9.85089 9.52288 9.83333 9.56527 9.83333 9.60948V11.3333C9.83333 11.4659 9.78065 11.5931 9.68689 11.6869L7.02022 14.3536C6.87722 14.4966 6.66216 14.5393 6.47533 14.4619C6.28849 14.3846 6.16667 14.2022 6.16667 14V9.60948C6.16667 9.56527 6.14911 9.52288 6.11785 9.49162L1.84171 5.21548C1.62292 4.99669 1.5 4.69994 1.5 4.39052V2.66667ZM2.66667 2.5C2.57462 2.5 2.5 2.57462 2.5 2.66667V4.39052C2.5 4.43473 2.51756 4.47712 2.54882 4.50837L6.82496 8.78452C7.04375 9.00331 7.16667 9.30006 7.16667 9.60948V12.7929L8.83333 11.1262V9.60948C8.83333 9.30006 8.95625 9.00331 9.17504 8.78452L13.4512 4.50838C13.4824 4.47712 13.5 4.43473 13.5 4.39052V2.66667C13.5 2.57462 13.4254 2.5 13.3333 2.5H2.66667Z" fill="currentColor"/>
</svg>
