<svg viewBox="0 0 13 12" fill="none" xmlns="http://www.w3.org/2000/svg">
<g clip-path="url(#clip0_6252_16228)">
<path fill-rule="evenodd" clip-rule="evenodd" d="M1.6411 10.1251V5.25011H2.3911V10.1251C2.3911 10.2246 2.43061 10.3199 2.50093 10.3903C2.57126 10.4606 2.66664 10.5001 2.7661 10.5001H9.5161C9.61555 10.5001 9.71094 10.4606 9.78126 10.3903C9.85159 10.3199 9.8911 10.2246 9.8911 10.1251V5.25011H10.6411V10.1251C10.6411 10.4235 10.5226 10.7096 10.3116 10.9206C10.1006 11.1316 9.81447 11.2501 9.5161 11.2501H2.7661C2.46773 11.2501 2.18158 11.1316 1.9706 10.9206C1.75963 10.7096 1.6411 10.4235 1.6411 10.1251ZM9.8911 1.87511V4.50011L8.3911 3.00011V1.87511C8.3911 1.77565 8.43061 1.68027 8.50093 1.60994C8.57126 1.53962 8.66664 1.50011 8.7661 1.50011H9.5161C9.61555 1.50011 9.71094 1.53962 9.78126 1.60994C9.85159 1.68027 9.8911 1.77565 9.8911 1.87511Z" fill="#8993A3"/>
<path fill-rule="evenodd" clip-rule="evenodd" d="M5.61085 1.12511C5.75149 0.984504 5.94223 0.905518 6.1411 0.905518C6.33997 0.905518 6.5307 0.984504 6.67135 1.12511L11.6566 6.10961C11.727 6.18002 11.7666 6.27553 11.7666 6.37511C11.7666 6.47469 11.727 6.57019 11.6566 6.64061C11.5862 6.71102 11.4907 6.75058 11.3911 6.75058C11.2915 6.75058 11.196 6.71102 11.1256 6.64061L6.1411 1.65536L1.1566 6.64061C1.08618 6.71102 0.99068 6.75058 0.891099 6.75058C0.791517 6.75058 0.696014 6.71102 0.625599 6.64061C0.555184 6.57019 0.515625 6.47469 0.515625 6.37511C0.515625 6.27553 0.555184 6.18002 0.625599 6.10961L5.61085 1.12511Z" fill="#8993A3"/>
</g>
<defs>
<clipPath id="clip0_6252_16228">
<rect width="12" height="12" fill="white" transform="translate(0.140625)"/>
</clipPath>
</defs>
</svg>
