<svg viewBox="0 0 6 8" fill="none" xmlns="http://www.w3.org/2000/svg">
<path fill-rule="evenodd" clip-rule="evenodd" d="M3.13508 0.789844L2.99967 1L2.86427 0.789844C2.94672 0.736719 3.05263 0.736719 3.13508 0.789844ZM2.99967 7.25C2.11074 7.25 1.3744 6.99356 0.85978 6.48699C0.344632 5.97989 0.0830078 5.25299 0.0830078 4.375C0.0830078 3.89518 0.275072 3.4301 0.538572 3.01475C0.803286 2.59748 1.15199 2.21168 1.49368 1.88538C1.83629 1.5582 2.17786 1.28516 2.43328 1.09414C2.56121 0.998475 2.66805 0.922988 2.74329 0.871166C2.78093 0.845247 2.8107 0.825223 2.83129 0.811529C2.84159 0.804682 2.84959 0.799415 2.85514 0.795783L2.86161 0.791568L2.86342 0.790392L2.86427 0.789844C2.86434 0.789802 2.86427 0.789844 2.99967 1C3.13508 0.789844 3.13501 0.789802 3.13508 0.789844L3.13593 0.790392L3.13774 0.791568L3.14421 0.795783C3.14976 0.799415 3.15776 0.804682 3.16806 0.811529C3.18865 0.825223 3.21842 0.845247 3.25606 0.871166C3.3313 0.922988 3.43814 0.998475 3.56607 1.09414C3.82149 1.28516 4.16306 1.5582 4.50567 1.88538C4.84736 2.21168 5.19606 2.59748 5.46078 3.01475C5.72428 3.4301 5.91634 3.89518 5.91634 4.375C5.91634 5.25299 5.65472 5.97989 5.13957 6.48699C4.62496 6.99356 3.88861 7.25 2.99967 7.25ZM4.45739 6.39002C4.61326 5.87742 4.46008 5.19513 4.05661 4.3882C4.01821 4.3114 3.94309 4.25968 3.85764 4.25122C3.7722 4.24276 3.68839 4.27874 3.63567 4.34651C3.49866 4.52267 3.38701 4.62826 3.30093 4.68653C3.21534 4.74448 3.17201 4.74467 3.16069 4.7435C3.15277 4.74269 3.13201 4.73887 3.09785 4.69861C3.06134 4.65557 3.02189 4.58414 2.9858 4.48037C2.9138 4.27337 2.87404 3.9935 2.8641 3.71756C2.8541 3.44016 2.87518 3.1954 2.90888 3.06063C2.9398 2.93693 2.87267 2.80977 2.75308 2.76553C2.63348 2.72129 2.49976 2.77415 2.44273 2.8882C2.41468 2.9443 2.38649 3.00044 2.35827 3.05665C1.89188 3.98549 1.41634 4.93256 1.41634 6C1.41634 6.11835 1.42769 6.22813 1.44976 6.32937C1.36332 6.26893 1.28358 6.20256 1.21054 6.13066C0.813141 5.73948 0.583008 5.15388 0.583008 4.375C0.583008 4.02639 0.724277 3.65539 0.960777 3.2826C1.19606 2.91172 1.51402 2.55732 1.839 2.24698C2.16306 1.93751 2.48815 1.67747 2.73273 1.49455C2.83991 1.4144 2.93122 1.34937 2.99967 1.30179C3.06813 1.34937 3.15944 1.4144 3.26662 1.49455C3.5112 1.67747 3.83629 1.93751 4.16035 2.24698C4.48533 2.55732 4.80329 2.91172 5.03857 3.2826C5.27507 3.65539 5.41634 4.02639 5.41634 4.375C5.41634 5.15388 5.18621 5.73948 4.78882 6.13066C4.69049 6.22745 4.58 6.31423 4.45739 6.39002ZM2.99967 6.75C2.64369 6.75 2.36873 6.70089 2.18846 6.58929C2.03151 6.49212 1.91634 6.3293 1.91634 6C1.91634 5.35173 2.116 4.74968 2.39668 4.12559C2.4208 4.30728 2.45855 4.48651 2.51355 4.64463C2.56079 4.78045 2.62551 4.91474 2.7166 5.0221C2.81004 5.13223 2.94033 5.22346 3.10949 5.24087C3.27525 5.25794 3.43505 5.19953 3.58123 5.10058C3.64219 5.05931 3.70369 5.00911 3.76593 4.95012C4.03404 5.58439 4.06482 6.01933 3.96453 6.2874C3.8619 6.5617 3.57946 6.75 2.99967 6.75Z" fill="#E5132C"/>
</svg>
