<svg width="110" height="40" viewBox="0 0 110 40" fill="none" xmlns="http://www.w3.org/2000/svg">
  <path d="M41.2355 11.3629C40.0637 6.13962 35.7953 2.04075 30.349 0.916313C27.4451 0.31796 24.4358 0 21.3452 0C18.2546 0 15.2453 0.315076 12.3414 0.913428C6.89815 2.03787 2.62669 6.13383 1.4549 11.36C0.831354 14.1466 0.5 17.0343 0.5 20C0.5 22.9658 0.828342 25.8534 1.4549 28.64C2.62669 33.8633 6.89815 37.9621 12.3414 39.0866C15.2453 39.6849 18.2546 40 21.3452 40C24.4358 40 27.4451 39.6849 30.349 39.0837C35.7923 37.9592 40.0637 33.8604 41.2355 28.6371C41.859 25.8534 42.1904 22.9629 42.1904 19.9971C42.1904 17.0314 41.8621 14.1437 41.2355 11.3571V11.3629Z" fill="url(#paint0_linear_3394_1602)"/>
  <path d="M19.3842 11.9352C12.8204 13.6233 8.51579 18.6385 9.77192 23.1391C11.0281 27.6398 17.369 29.9176 23.9328 28.2295L22.7941 24.1566C29.358 22.4685 33.9156 18.3639 32.9728 14.9905C32.0299 11.6172 25.945 10.25 19.3812 11.9352H19.3842Z" fill="white"/>
  <path fill-rule="evenodd" clip-rule="evenodd" d="M53.3727 19.9884V20.2001C53.3727 22.3781 54.1698 24.1561 55.7702 25.5341C57.3675 26.9122 59.5703 27.6012 62.3694 27.6012C64.0489 27.6012 65.5306 27.3413 66.8115 26.8275C68.0924 26.3137 69.0143 25.6684 69.5741 24.8918L67.6482 23.2393C67.0853 23.759 66.3642 24.2174 65.4788 24.6145C64.5904 25.0115 63.5803 25.2101 62.4394 25.2101C60.4465 25.2101 58.904 24.7283 57.8117 23.7619C56.8989 22.9561 56.3909 21.9868 56.2387 20.8716C56.2387 20.8716 56.2037 20.4306 56.2037 19.9582L53.3727 19.9884Z" fill="black"/>
  <path fill-rule="evenodd" clip-rule="evenodd" d="M53.3727 20.0118V19.8002C53.3727 17.6221 54.1698 15.8441 55.7702 14.4661C57.3675 13.0881 59.5703 12.399 62.3694 12.399C64.0489 12.399 65.5306 12.6589 66.8115 13.1727C68.0924 13.6866 69.0143 14.3318 69.5741 15.1084L67.6482 16.7609C67.0853 16.2412 66.3642 15.7828 65.4788 15.3858C64.5904 14.9887 63.5803 14.7902 62.4394 14.7902C60.4465 14.7902 58.904 15.2719 57.8117 16.2383C56.8989 17.0441 56.3909 18.0134 56.2387 19.1287C56.2387 19.1287 56.2037 19.5696 56.2037 20.042L53.3727 20.0118Z" fill="black"/>
  <path d="M84.3904 27.5173V12.8473H87.1342V15.1054H87.1508C87.1669 15.0763 87.1835 15.0472 87.2007 15.0183C87.599 14.3492 88.303 13.7536 89.3126 13.2316C90.3768 12.6765 91.4854 12.3989 92.6383 12.3989C94.0019 12.3989 95.1382 12.7192 96.0472 13.3598C96.9563 14.0004 97.5328 14.7531 97.7766 15.6179H97.76C98.0926 14.8278 98.8464 14.0965 100.022 13.4238C101.208 12.7405 102.494 12.3989 103.879 12.3989C105.431 12.3989 106.756 12.9647 107.854 14.0965C108.951 15.2175 109.5 16.8778 109.5 19.0772V27.5173H106.69V19.1733C106.69 17.796 106.368 16.7657 105.725 16.0824C105.093 15.399 104.19 15.0574 103.015 15.0574C101.884 15.0574 100.914 15.3617 100.105 15.9703C99.2954 16.5788 98.7079 17.2675 98.342 18.0362V27.5173H95.5317V19.2053C95.5317 17.7533 95.2103 16.7016 94.5673 16.0503C93.9243 15.3884 93.0374 15.0574 91.9067 15.0574C90.9311 15.0574 89.9832 15.3884 89.0631 16.0503C88.143 16.7016 87.5222 17.3956 87.2007 18.1323V27.5173H84.3904Z" fill="black"/>
  <path d="M87.1342 12.8473V15.1054H87.1508C87.1669 15.0763 87.1835 15.0472 87.2007 15.0183V12.8473H87.1342Z" fill="black"/>
  <path d="M74.5793 12.8473V15.1054H74.596C74.612 15.0763 74.6287 15.0472 74.6459 15.0183V12.8473H74.5793Z" fill="black"/>
  <path fill-rule="evenodd" clip-rule="evenodd" d="M71.8356 27.5173V12.8473H74.5793V15.1054H74.596C74.612 15.0763 74.6287 15.0472 74.6459 15.0183C75.0442 14.3492 75.7482 13.7536 76.7577 13.2316C77.822 12.6765 78.9306 12.3989 80.0835 12.3989C80.787 12.3989 81.43 12.4841 82.0125 12.6546V15.5145C81.1901 15.1154 80.4826 15.0574 79.3518 15.0574C78.3763 15.0574 77.4284 15.3884 76.5083 16.0503C75.5882 16.7016 74.9674 17.3956 74.6459 18.1323V27.5173H71.8356ZM85.2218 15.6179H85.2052C85.2085 15.6101 85.2118 15.6024 85.2151 15.5946L85.219 15.608L85.2218 15.6179Z" fill="black"/>
  <defs>
    <linearGradient id="paint0_linear_3394_1602" x1="13.0382" y1="35.404" x2="32.9643" y2="-18.8869" gradientUnits="userSpaceOnUse">
      <stop stop-color="#E5132C"/>
      <stop offset="1" stop-color="#FF1728"/>
    </linearGradient>
  </defs>
</svg>
