<svg xmlns="http://www.w3.org/2000/svg" width="16" height="16" viewBox="0 0 16 16" fill="none">
  <path fill-rule="evenodd" clip-rule="evenodd" d="M2.83325 7.33331C2.83325 4.84803 4.84797 2.83331 7.33325 2.83331C9.81853 2.83331 11.8333 4.84803 11.8333 7.33331C11.8333 8.39561 11.4647 9.37254 10.8492 10.1421L13.0201 12.3131C13.2154 12.5084 13.2154 12.8249 13.0201 13.0202C12.8249 13.2155 12.5083 13.2155 12.313 13.0202L10.1421 10.8492C9.37247 11.4647 8.39553 11.8333 7.33325 11.8333C4.84797 11.8333 2.83325 9.81859 2.83325 7.33331ZM7.33325 3.83331C5.40025 3.83331 3.83325 5.40032 3.83325 7.33331C3.83325 9.2663 5.40025 10.8333 7.33325 10.8333C8.30155 10.8333 9.17727 10.4408 9.81143 9.8049L9.81144 9.80488C10.4434 9.17127 10.8333 8.2983 10.8333 7.33331C10.8333 5.40032 9.26624 3.83331 7.33325 3.83331Z" fill="#8993A3"/>
</svg>
