<svg xmlns="http://www.w3.org/2000/svg" width="12" height="12" viewBox="0 0 12 12" fill="none">
  <path fill-rule="evenodd" clip-rule="evenodd" d="M7.92452 1.125C8.02397 1.125 8.11936 1.16451 8.18968 1.23484L10.6645 3.70971C10.811 3.85616 10.811 4.09359 10.6645 4.24004L9.25069 5.65388C9.25057 5.654 9.25045 5.65412 9.25033 5.65424C9.25021 5.65436 9.25009 5.65447 9.24997 5.65459L4.44707 10.4575C4.44706 10.4575 4.44705 10.4575 4.44703 10.4575C4.28289 10.6217 4.06031 10.7138 3.82831 10.7138H1.56055C1.35344 10.7138 1.18555 10.5459 1.18555 10.3388V8.07107C1.18555 7.83904 1.27772 7.61645 1.44183 7.45235M1.44185 7.45233L6.2449 2.6493C6.24498 2.64922 6.24507 2.64914 6.24515 2.64905C6.24523 2.64897 6.24532 2.64888 6.2454 2.6488L7.65935 1.23484C7.72968 1.16451 7.82506 1.125 7.92452 1.125M7.92452 2.03033L7.04065 2.91421L8.98517 4.85874L9.86904 3.97487L7.92452 2.03033ZM8.45484 5.38907L6.51032 3.44454L1.97216 7.98269L1.97214 7.98271C1.94873 8.00611 1.93555 8.03791 1.93555 8.07107V9.96382H3.82831C3.86151 9.96382 3.89327 9.95065 3.91666 9.92725L3.9167 9.92721L8.45484 5.38907Z" fill="#0F62FE"/>
</svg>
