<svg xmlns="http://www.w3.org/2000/svg" width="12" height="12" viewBox="0 0 12 12" fill="none">
  <path fill-rule="evenodd" clip-rule="evenodd" d="M3.625 3.125V1.8C3.625 1.63893 3.68142 1.49103 3.77557 1.375C3.89932 1.22248 4.08828 1.125 4.3 1.125H7.7C7.91173 1.125 8.10068 1.22248 8.22444 1.375C8.31859 1.49104 8.375 1.63893 8.375 1.8V3.125H10.5C10.7071 3.125 10.875 3.29289 10.875 3.5C10.875 3.70711 10.7071 3.875 10.5 3.875H1.5C1.29289 3.875 1.125 3.70711 1.125 3.5C1.125 3.29289 1.29289 3.125 1.5 3.125H3.625ZM9.875 5.5C9.875 5.29289 9.70711 5.125 9.5 5.125C9.4045 5.125 9.31734 5.1607 9.25113 5.21948C9.17376 5.28817 9.125 5.38839 9.125 5.5V10.125H2.875V5.5C2.875 5.38839 2.82624 5.28817 2.74887 5.21948C2.68266 5.1607 2.5955 5.125 2.5 5.125C2.29289 5.125 2.125 5.29289 2.125 5.5V10.2C2.125 10.5728 2.42722 10.875 2.8 10.875H9.2C9.57281 10.875 9.875 10.5728 9.875 10.2V5.5ZM4.625 8.5C4.625 8.70711 4.79289 8.875 5 8.875C5.20711 8.875 5.375 8.70711 5.375 8.5V5.5C5.375 5.3294 5.26107 5.1854 5.10515 5.13994C5.07179 5.13022 5.0365 5.125 5 5.125C4.82304 5.125 4.6747 5.24758 4.63527 5.41246C4.62856 5.44055 4.625 5.46986 4.625 5.5V8.5ZM6.89485 5.13994C6.73893 5.1854 6.625 5.3294 6.625 5.5V8.5C6.625 8.70711 6.79289 8.875 7 8.875C7.20711 8.875 7.375 8.70711 7.375 8.5V5.5C7.375 5.46986 7.37144 5.44055 7.36473 5.41246C7.3253 5.24758 7.17696 5.125 7 5.125C6.9635 5.125 6.92821 5.13022 6.89485 5.13994ZM7.625 3.125V1.875H4.375V3.125H7.625Z" fill="#E5132C"/>
</svg>
