<svg xmlns="http://www.w3.org/2000/svg" width="21" height="20" viewBox="0 0 21 20" fill="none">
  <path fill-rule="evenodd" clip-rule="evenodd" d="M14.2551 3.125C13.162 3.125 12.1119 3.57424 11.3379 4.37693L11.3378 4.37705L11.117 4.60595C10.9992 4.72804 10.8368 4.79701 10.6672 4.79702C10.4975 4.79702 10.3352 4.72807 10.2174 4.60599L9.99638 4.37695L9.99634 4.37691C8.38656 2.70823 5.77173 2.70823 4.16192 4.37691C2.55801 6.03949 2.558 8.73086 4.16192 10.3935C4.16192 10.3935 4.16192 10.3935 4.16193 10.3935L10.2411 16.695C10.4651 16.9272 10.8385 16.936 11.0735 16.7143C12.4719 15.3675 13.8011 13.956 15.1404 12.5339C15.8118 11.8208 16.4858 11.1051 17.1724 10.3935L17.1724 10.3934C17.9417 9.59622 18.3757 8.51477 18.3757 7.38518C18.3757 6.25562 17.9418 5.17424 17.1724 4.37699L17.1723 4.37683C16.3982 3.57419 15.3481 3.125 14.2551 3.125ZM10.6672 3.28525C11.6471 2.38227 12.9231 1.875 14.2551 1.875C15.6934 1.875 17.0664 2.46648 18.0719 3.50896C19.07 4.54318 19.6257 5.93733 19.6257 7.38518C19.6257 8.83307 19.0699 10.2273 18.0719 11.2614C17.4081 11.9495 16.7454 12.6532 16.0791 13.3605C14.7263 14.797 13.3589 16.2488 11.9386 17.6166L11.9353 17.6198L11.9353 17.6198C11.2029 18.3148 10.0428 18.2897 9.34152 17.5629L9.79132 17.1289L9.34151 17.5629L3.26231 11.2614L3.26231 11.2613C1.19121 9.11447 1.19121 5.65589 3.26231 3.50904L3.71212 3.94297L3.26231 3.50904C5.28903 1.4082 8.55266 1.3336 10.6672 3.28525Z" fill="#1F2B31"/>
</svg>
