<svg xmlns="http://www.w3.org/2000/svg" width="16" height="16" viewBox="0 0 16 16" fill="none">
  <path fill-rule="evenodd" clip-rule="evenodd" d="M4.15182 4.15133C4.34708 3.95607 4.66366 3.95607 4.85892 4.15133L8.00046 7.29287L11.142 4.15133C11.3372 3.95607 11.6538 3.95607 11.8491 4.15133C12.0443 4.34659 12.0443 4.66317 11.8491 4.85843L8.70756 7.99997L11.8491 11.1415C12.0443 11.3368 12.0443 11.6533 11.8491 11.8486C11.6538 12.0439 11.3372 12.0439 11.142 11.8486L8.00046 8.70708L4.85892 11.8486C4.66366 12.0439 4.34708 12.0439 4.15182 11.8486C3.95656 11.6533 3.95656 11.3367 4.15182 11.1415L7.29335 7.99997L4.15182 4.85844C3.95656 4.66317 3.95656 4.34659 4.15182 4.15133Z" fill="#E5132C"/>
</svg>
