<svg xmlns="http://www.w3.org/2000/svg" width="20" height="20" viewBox="0 0 20 20" fill="none">
  <path fill-rule="evenodd" clip-rule="evenodd" d="M6.04199 6.66659C6.04199 4.48046 7.8142 2.70825 10.0003 2.70825C12.1864 2.70825 13.9587 4.48045 13.9587 6.66659C13.9587 7.95849 13.3397 9.10586 12.3822 9.82834C14.7702 10.7764 16.4587 13.1076 16.4587 15.8333V16.6666C16.4587 17.0118 16.1788 17.2916 15.8337 17.2916C15.4885 17.2916 15.2087 17.0118 15.2087 16.6666V15.8333C15.2087 12.9568 12.8768 10.6249 10.0003 10.6249C7.12384 10.6249 4.79199 12.9568 4.79199 15.8333V16.6666C4.79199 17.0118 4.51217 17.2916 4.16699 17.2916C3.82181 17.2916 3.54199 17.0118 3.54199 16.6666V15.8333C3.54199 13.1076 5.23043 10.7764 7.61843 9.82834C6.66092 9.10586 6.04199 7.95849 6.04199 6.66659ZM10.0003 3.95825C8.50455 3.95825 7.29199 5.17081 7.29199 6.66659C7.29199 8.16233 8.50456 9.37492 10.0003 9.37492C11.4961 9.37492 12.7087 8.16232 12.7087 6.66659C12.7087 5.17082 11.4961 3.95825 10.0003 3.95825Z" fill="#0F62FE"/>
</svg>
