<svg xmlns="http://www.w3.org/2000/svg" width="92" height="36" viewBox="0 0 92 36" fill="none">
  <path d="M35.0732 10.2504C34.0643 5.56373 30.3892 1.886 25.6999 0.877097C23.1997 0.340223 20.6087 0.0549316 17.9477 0.0549316C15.2866 0.0549316 12.6956 0.337634 10.1954 0.874508C5.50879 1.88342 1.83108 5.55854 0.82217 10.2478C0.285295 12.748 0 15.339 0 18C0 20.661 0.282702 23.252 0.82217 25.7523C1.83108 30.4389 5.50879 34.1166 10.1954 35.1255C12.6956 35.6624 15.2866 35.9451 17.9477 35.9451C20.6087 35.9451 23.1997 35.6624 25.6999 35.1229C30.3866 34.114 34.0643 30.4363 35.0732 25.7497C35.6101 23.252 35.8954 20.6584 35.8954 17.9974C35.8954 15.3364 35.6126 12.7454 35.0732 10.2452V10.2504Z" fill="url(#paint0_linear_3855_1134)"/>
  <path d="M16.2596 10.7638C10.6082 12.2785 6.90192 16.7784 7.98345 20.8166C9.06498 24.8548 14.5245 26.8986 20.1759 25.3839L19.1956 21.7296C24.847 20.2149 28.7711 16.532 27.9593 13.5053C27.1475 10.4786 21.9085 9.25178 16.257 10.7638H16.2596Z" fill="white"/>
  <path d="M51.9216 11.2902C49.8105 11.2902 48.0728 11.8997 46.7163 13.1213C45.3573 14.3428 44.6777 15.9172 44.6777 17.8416V18.2177C44.6777 20.1525 45.3573 21.732 46.7215 22.9562C48.0831 24.1804 49.9609 24.7924 52.347 24.7924C53.7787 24.7924 55.0417 24.5616 56.1336 24.1051C57.2255 23.6487 58.0114 23.0755 58.4886 22.3856L56.8469 20.9176C56.3671 21.3793 55.7524 21.7865 54.9976 22.1392C54.2403 22.4919 53.3792 22.6683 52.4066 22.6683C50.7078 22.6683 49.3929 22.2403 48.4618 21.3819C47.6837 20.666 47.2506 19.805 47.1209 18.8142H58.748V17.6289C58.7558 15.6863 58.1489 14.1431 56.9273 13.002C55.7057 11.8608 54.038 11.2876 51.9242 11.2876L51.9216 11.2902ZM47.1676 16.8431C47.3388 16.0235 47.72 15.2947 48.3295 14.6671C49.175 13.793 50.2981 13.3573 51.6986 13.3573C53.2729 13.3573 54.4452 13.6763 55.2155 14.3091C55.9313 14.8979 56.2919 15.7512 56.3308 16.8457H47.1676V16.8431Z" fill="black"/>
  <path d="M89.5213 16.8898H81.7249V11.6404H79.248V24.4294H81.7249V19.0996H89.5213V24.4294H92.0007V11.6404H89.5213V16.8898Z" fill="black"/>
  <path d="M74.1562 24.4294H74.3714V26.5665H76.8509V22.2093H76.5864H74.3792V11.6404H71.8997V22.2093H64.0801V11.6404H61.6006V24.4294H67.9549H74.1562Z" fill="black"/>
  <defs>
    <linearGradient id="paint0_linear_3855_1134" x1="4.129" y1="31.8213" x2="31.7663" y2="4.18393" gradientUnits="userSpaceOnUse">
      <stop stop-color="#E5132C"/>
      <stop offset="1" stop-color="#FF1728"/>
    </linearGradient>
  </defs>
</svg>
