<svg xmlns="http://www.w3.org/2000/svg" width="20" height="20" viewBox="0 0 20 20" fill="none">
  <path fill-rule="evenodd" clip-rule="evenodd" d="M13.5881 3.125C12.495 3.125 11.4449 3.57424 10.6709 4.37693L10.6708 4.37705L10.45 4.60595C10.3322 4.72804 10.1698 4.79701 10.0002 4.79702C9.83054 4.79702 9.66818 4.72807 9.55039 4.60599L9.32939 4.37695L9.32935 4.37691C7.71956 2.70823 5.10473 2.70823 3.49493 4.37691C1.89102 6.03949 1.89101 8.73086 3.49493 10.3935C3.49493 10.3935 3.49493 10.3935 3.49493 10.3935L9.57413 16.695C9.79811 16.9272 10.1715 16.936 10.4065 16.7143C11.805 15.3675 13.1342 13.956 14.4734 12.5339C15.1449 11.8208 15.8189 11.1051 16.5054 10.3935L16.5054 10.3934C17.2748 9.59622 17.7087 8.51477 17.7087 7.38518C17.7087 6.25562 17.2748 5.17424 16.5054 4.37699L16.5053 4.37683C15.7312 3.57419 14.6811 3.125 13.5881 3.125ZM10.0002 3.28525C10.9801 2.38227 12.2561 1.875 13.5881 1.875C15.0264 1.875 16.3995 2.46648 17.4049 3.50896C18.403 4.54318 18.9587 5.93733 18.9587 7.38518C18.9587 8.83307 18.4029 10.2273 17.4049 11.2614C16.7411 11.9495 16.0784 12.6532 15.4121 13.3605C14.0593 14.797 12.6919 16.2488 11.2716 17.6166L11.2683 17.6198L11.2683 17.6198C10.5359 18.3148 9.37578 18.2897 8.67452 17.5629L9.12432 17.1289L8.67452 17.5629L2.59532 11.2614L2.59531 11.2613C0.524221 9.11447 0.524215 5.65589 2.59532 3.50904L3.04512 3.94297L2.59532 3.50904C4.62203 1.4082 7.88567 1.3336 10.0002 3.28525Z" fill="#0F62FE"/>
</svg>
