<svg xmlns="http://www.w3.org/2000/svg" width="16" height="16" viewBox="0 0 16 16" fill="none">
  <path fill-rule="evenodd" clip-rule="evenodd" d="M10.8708 2.5C9.9964 2.5 9.15628 2.85939 8.53712 3.50154L8.53703 3.50164L8.36036 3.68476C8.26613 3.78243 8.13625 3.83761 8.00054 3.83761C7.86482 3.83762 7.73494 3.78246 7.6407 3.68479L7.4639 3.50156L7.46387 3.50153C6.17604 2.16659 4.08418 2.16658 2.79633 3.50153C1.5132 4.83159 1.5132 6.98469 2.79633 8.31478C2.79633 8.31479 2.79634 8.31479 2.79634 8.31479L7.65969 13.356C7.83888 13.5417 8.13761 13.5488 8.3256 13.3715C9.44435 12.294 10.5077 11.1648 11.5791 10.0271C12.1163 9.45664 12.6555 8.88406 13.2047 8.31478L13.2047 8.31472C13.8202 7.67697 14.1673 6.81181 14.1673 5.90815C14.1673 5.00449 13.8203 4.13939 13.2047 3.50159L13.2046 3.50147C12.5854 2.85936 11.7453 2.5 10.8708 2.5ZM8.00056 2.6282C8.78444 1.90581 9.80526 1.5 10.8708 1.5C12.0215 1.5 13.12 1.97318 13.9243 2.80717C14.7228 3.63454 15.1673 4.74987 15.1673 5.90815C15.1673 7.06645 14.7227 8.18183 13.9243 9.00914C13.3933 9.5596 12.8631 10.1225 12.3301 10.6884C11.2478 11.8376 10.1539 12.9991 9.01768 14.0933L9.01504 14.0958L9.01503 14.0958C8.42909 14.6519 7.50101 14.6318 6.94001 14.0503L7.29985 13.7031L6.94001 14.0503L2.07665 9.00908L2.07664 9.00908C0.419767 7.29157 0.419763 4.52472 2.07664 2.80723L2.43649 3.15438L2.07664 2.80723C3.69802 1.12656 6.30893 1.06688 8.00056 2.6282Z" fill="#0F62FE"/>
</svg>
