<svg xmlns="http://www.w3.org/2000/svg" width="20" height="20" viewBox="0 0 20 20" fill="none">
  <path fill-rule="evenodd" clip-rule="evenodd" d="M18.1246 4.13454C18.1194 4.03046 18.0881 3.92656 18.0289 3.83303C18.003 3.79182 17.9728 3.75449 17.9392 3.72137C17.8057 3.58947 17.6221 3.52738 17.4417 3.54421C17.3797 3.54999 17.318 3.56512 17.2588 3.58996L1.43754 9.83521C1.1738 9.93932 1.01319 10.2079 1.04629 10.4895C1.0794 10.7711 1.29793 10.9952 1.57863 11.0353L6.87535 11.7919V15.8332C6.87535 16.0865 7.02822 16.3147 7.26243 16.4112C7.49664 16.5076 7.76589 16.4531 7.94421 16.2732L10.2848 13.9123L15.0641 17.1824C15.2402 17.3029 15.4657 17.3252 15.662 17.2415C15.8584 17.1579 15.9984 16.9798 16.0335 16.7693L18.1164 4.27177C18.1242 4.22665 18.1269 4.18062 18.1246 4.13454ZM10.5685 12.5918C10.5629 12.5879 10.5573 12.584 10.5516 12.5803L8.59418 11.241L16.6372 5.54388L14.9616 15.5976L10.5685 12.5918ZM7.34226 10.596L12.9154 6.64835L4.0913 10.1315L7.34226 10.596ZM6.87657 11.2106C6.88536 11.0689 6.94134 10.94 7.02899 10.8395C7.04621 10.8197 7.06473 10.8009 7.08449 10.7833M6.87657 11.2106C6.87556 11.2265 6.87515 11.2424 6.87535 11.2584L6.87657 11.2106ZM8.12535 12.4348L9.23599 13.1947L8.12535 14.315V12.4348ZM17.2652 3.58744C17.4282 3.52127 17.6132 3.52646 17.7734 3.60435C17.7935 3.61409 17.8131 3.62495 17.8323 3.63696C17.89 3.67318 17.9404 3.71784 17.9824 3.76864C17.9921 3.78042 18.0014 3.79264 18.0104 3.80529C18.0155 3.81249 18.0204 3.81975 18.0251 3.82708C18.0286 3.83248 18.032 3.83793 18.0354 3.84343M18.0251 3.82708C18.0121 3.80684 17.9978 3.78733 17.9824 3.76864L18.0251 3.82708Z" fill="#0F62FE"/>
</svg>
