<svg xmlns="http://www.w3.org/2000/svg" width="16" height="16" viewBox="0 0 16 16" fill="none">
  <path d="M10.1625 15.0013C9.92813 15.0013 9.69375 14.9481 9.48125 14.8388C9.46562 14.8294 9.45 14.8231 9.43437 14.8106L5.96562 12.5481C5.83125 12.4856 5.675 12.4888 5.54063 12.5544L2.50625 14.5325C2.49375 14.5419 2.48125 14.5481 2.46875 14.5544C2.325 14.6294 2.1625 14.67 2 14.67C1.45 14.67 1 14.22 1 13.67V4.42627C1 4.06377 1.19375 3.73565 1.50625 3.55752L5.01875 1.20127C5.03438 1.1919 5.04688 1.18252 5.0625 1.17315C5.49063 0.948149 6.00313 0.941899 6.43437 1.15752C6.45 1.1669 6.46562 1.17315 6.48125 1.18252L10.0312 3.45752C10.1656 3.5169 10.3188 3.51377 10.45 3.45127L13.4937 1.47002C13.5063 1.46065 13.5188 1.4544 13.5312 1.44815C13.675 1.37315 13.8375 1.33252 14 1.33252C14.2656 1.33252 14.5188 1.43565 14.7063 1.62627C14.8938 1.81377 15 2.0669 15 2.33252V11.5731C15 11.9388 14.8031 12.27 14.4875 12.445L10.8969 14.8075C10.8813 14.8169 10.8687 14.8263 10.8531 14.8325C10.6375 14.945 10.4 15.0013 10.1625 15.0013ZM9.95625 13.9575C10.0875 14.0169 10.2438 14.0169 10.375 13.9544L13.9563 11.5982C13.9719 11.5888 13.9844 11.5794 14 11.5731V2.33565L10.975 4.3044C10.9625 4.31377 10.95 4.32002 10.9344 4.32627C10.5094 4.55127 9.99688 4.55752 9.5625 4.3419C9.54688 4.33252 9.53125 4.32627 9.51562 4.3169L5.96562 2.04502C5.83125 1.98565 5.67813 1.98877 5.54688 2.05127L2.04375 4.40127C2.02813 4.41065 2.01562 4.42002 2 4.4294V13.67L5.01875 11.7013C5.03125 11.6919 5.04375 11.6856 5.05625 11.6794C5.4875 11.4513 6.00313 11.4481 6.4375 11.6669C6.45312 11.6763 6.46875 11.6825 6.48438 11.695L9.95625 13.9575Z" fill="#0F62FE"/>
  <path d="M10.25 15.0013C9.975 15.0013 9.75 14.7763 9.75 14.5013V4.00128C9.75 3.72628 9.975 3.50128 10.25 3.50128C10.525 3.50128 10.75 3.72628 10.75 4.00128V14.5013C10.75 14.7763 10.525 15.0013 10.25 15.0013Z" fill="#0F62FE"/>
  <path d="M5.75 12.5013C5.475 12.5013 5.25 12.2763 5.25 12.0013V1.50128C5.25 1.22628 5.475 1.00128 5.75 1.00128C6.025 1.00128 6.25 1.22628 6.25 1.50128V12.0013C6.25 12.2763 6.025 12.5013 5.75 12.5013Z" fill="#0F62FE"/>
</svg>
