<svg xmlns="http://www.w3.org/2000/svg" width="48" height="48" viewBox="0 0 48 48" fill="none">
  <path d="M46.9006 13.6355C45.5514 7.36754 40.637 2.4489 34.3665 1.09958C31.0231 0.381552 27.5584 0 24 0C20.4416 0 16.9769 0.378091 13.6335 1.09611C7.36647 2.44544 2.44856 7.3606 1.09942 13.632C0.381503 16.9759 0 20.4411 0 24C0 27.5589 0.378035 31.0241 1.09942 34.368C2.44856 40.6359 7.36647 45.5546 13.6335 46.9039C16.9769 47.6219 20.4416 48 24 48C27.5584 48 31.0231 47.6219 34.3665 46.9004C40.6335 45.5511 45.5514 40.6325 46.9006 34.3645C47.6185 31.0241 48 27.5554 48 23.9965C48 20.4376 47.622 16.9724 46.9006 13.6286V13.6355Z" fill="url(#paint0_linear_2063_7466)"/>
  <path d="M21.7427 14.3224C14.1854 16.3481 9.22936 22.3663 10.6756 27.7671C12.1218 33.1679 19.4224 35.9012 26.9796 33.8755L25.6687 28.9881C33.2259 26.9623 38.4733 22.0368 37.3877 17.9888C36.3022 13.9408 29.2964 12.3001 21.7392 14.3224H21.7427Z" fill="white"/>
  <defs>
    <linearGradient id="paint0_linear_2063_7466" x1="5.52139" y1="42.4848" x2="42.484" y2="5.52753" gradientUnits="userSpaceOnUse">
      <stop stop-color="#E5132C"/>
      <stop offset="1" stop-color="#FF1728"/>
    </linearGradient>
  </defs>
</svg>
